
<svg xmlns="http://www.w3.org/2000/svg" version="1.1" xmlns:xlink="http://www.w3.org/1999/xlink" preserveAspectRatio="none" x="0px" y="0px" width="500px" height="150px" viewBox="0 0 500 150">
<defs>
<g id="Layer0_0_FILL">
<path fill="#2CC76A" stroke="none" d="
M 73.95 105
L 73.4 106.1 100.4 167.45 123.2 167.45 84.85 80.2 77.4 97.15
Q 75.65 101.1 73.95 105
M 67.95 118.75
L 60.75 135.25 75.2 135.25 67.95 118.75 Z"/>

<path fill="#2DB6D8" stroke="none" d="
M 45.45 144.1
L 45.45 144.05 22.65 144.05 12.35 167.45 90.9 167.45 80.65 144.1 45.45 144.1
M 79.2 67.3
L 67.75 41.25 26.5 135.25 49.35 135.25 79.2 67.3 Z"/>
</g>

<g id="Layer0_1_FILL">
<path fill="#FFFFFF" stroke="none" d="
M 212.45 83.95
L 202.55 67.85 189.7 67.85 205.95 91.85 188.85 117.4 170.3 67.85 158.95 67.85 139.8 118.3 151.05 118.3 155 107.05 173.9 107.05 177.65 118.3 200.8 118.3 212.05 100.85 223.05 118.3 236.3 118.3 218.7 91.95 234.85 67.85 222.7 67.85 212.45 83.95
M 164.65 80.25
L 171 98.8 157.9 98.8 164.45 80.25 164.65 80.25
M 278.5 77.15
L 278.5 67.85 240.75 67.85 240.75 118.3 279.05 118.3 279.05 109 251.9 109 251.9 96.6 276.3 96.6 276.3 87.95 251.9 87.95 251.9 77.15 278.5 77.15
M 329.15 118.3
L 329.15 67.85 318.75 67.85 318.75 101.7 297.6 67.85 286.5 67.85 286.5 118.3 296.9 118.3 296.9 84.5 318 118.3 329.15 118.3
M 334.95 77.15
L 350.05 77.15 350.05 118.3 361.1 118.3 361.1 77.15 376.25 77.15 376.25 67.85 334.95 67.85 334.95 77.15
M 420.05 71.95
Q 415.85 67.85 409.25 67.85
L 382 67.85 382 118.3 393.15 118.3 393.15 98.6 404.2 98.6
Q 408.3 98.6 410.2 100.35 412.05 102.1 412.65 106.2 412.9 109.4 413.2 112.55 413.65 116.4 414.4 118.3
L 425.5 118.3
Q 424.2 116.55 423.8 112.45 423.6 109.4 423.35 106.35 422.65 96.25 416 94.55
L 416 94.4
Q 424 91.2 424 81.75 424 75.9 420.05 71.95
M 412.9 83.45
Q 412.9 90.65 405.3 90.65
L 393.15 90.65 393.15 76.45 405.3 76.45
Q 412.9 76.45 412.9 83.45
M 437.45 74.35
Q 430.9 81.7 430.9 93.3 430.9 104.6 437.45 111.9 444.3 119.5 455.7 119.5 467.05 119.5 473.95 111.9 480.5 104.6 480.5 93.3 480.5 81.7 473.95 74.35 467.15 66.65 455.7 66.65 444.25 66.65 437.45 74.35
M 441.95 93.3
Q 441.95 85.95 445.1 81.35 448.7 75.95 455.7 75.95 462.7 75.95 466.3 81.35 469.4 85.95 469.4 93.3 469.4 100.35 466.3 104.9 462.6 110.15 455.7 110.15 448.75 110.15 445.1 104.9 441.95 100.35 441.95 93.3 Z"/>
</g>
</defs>

<g transform="matrix( 1, 0, 0, 1, 0,-27) ">
<use xlink:href="#Layer0_0_FILL"/>
</g>

<g transform="matrix( 1, 0, 0, 1, 0,0) ">
<use xlink:href="#Layer0_1_FILL"/>
</g>
</svg>
